# Blender v2.83.2 OBJ File: 'hex_cell.blend'
# www.blender.org
mtllib hex_cell.mtl
o Cube
v 1.000000 0.100000 -0.576829
v 1.000000 -0.100000 -0.576829
v 1.000000 0.100000 0.576829
v 1.000000 -0.100000 0.576829
v -1.000000 0.100000 -0.576829
v -1.000000 -0.100000 -0.576829
v -1.000000 0.100000 0.576829
v -1.000000 -0.100000 0.576829
v 0.000451 0.100000 -1.154440
v 0.000451 -0.100000 -1.154440
v 0.999549 0.100000 -0.577611
v 0.999549 -0.100000 -0.577611
v -0.999549 0.100000 0.577611
v -0.999549 -0.100000 0.577611
v -0.000451 0.100000 1.154440
v -0.000451 -0.100000 1.154440
v -0.999549 0.100000 -0.577611
v -0.999549 -0.100000 -0.577611
v -0.000451 0.100000 -1.154440
v -0.000451 -0.100000 -1.154440
v 0.000451 0.100000 1.154440
v 0.000451 -0.100000 1.154440
v 0.999549 0.100000 0.577611
v 0.999549 -0.100000 0.577611
vt 0.625000 0.500000
vt 0.875000 0.500000
vt 0.875000 0.750000
vt 0.625000 0.750000
vt 0.375000 0.750000
vt 0.625000 1.000000
vt 0.375000 1.000000
vt 0.375000 0.000000
vt 0.625000 0.000000
vt 0.625000 0.250000
vt 0.375000 0.250000
vt 0.125000 0.500000
vt 0.375000 0.500000
vt 0.125000 0.750000
vt 0.625000 0.500000
vt 0.875000 0.500000
vt 0.875000 0.750000
vt 0.625000 0.750000
vt 0.375000 0.750000
vt 0.625000 1.000000
vt 0.375000 1.000000
vt 0.375000 0.000000
vt 0.625000 0.000000
vt 0.625000 0.250000
vt 0.375000 0.250000
vt 0.125000 0.500000
vt 0.375000 0.500000
vt 0.125000 0.750000
vt 0.625000 0.500000
vt 0.875000 0.500000
vt 0.875000 0.750000
vt 0.625000 0.750000
vt 0.375000 0.750000
vt 0.625000 1.000000
vt 0.375000 1.000000
vt 0.375000 0.000000
vt 0.625000 0.000000
vt 0.625000 0.250000
vt 0.375000 0.250000
vt 0.125000 0.500000
vt 0.375000 0.500000
vt 0.125000 0.750000
vn 0.0000 1.0000 0.0000
vn 0.0000 0.0000 1.0000
vn -1.0000 0.0000 0.0000
vn 0.0000 -1.0000 0.0000
vn 1.0000 0.0000 0.0000
vn 0.0000 0.0000 -1.0000
vn 0.8660 0.0000 0.5000
vn -0.5000 0.0000 0.8660
vn 0.5000 0.0000 -0.8660
vn -0.8660 0.0000 -0.5000
vn 0.8660 0.0000 -0.5000
vn 0.5000 0.0000 0.8660
vn -0.5000 0.0000 -0.8660
vn -0.8660 0.0000 0.5000
usemtl Material
s off
f 1/1/1 5/2/1 7/3/1 3/4/1
f 4/5/2 3/4/2 7/6/2 8/7/2
f 8/8/3 7/9/3 5/10/3 6/11/3
f 6/12/4 2/13/4 4/5/4 8/14/4
f 2/13/5 1/1/5 3/4/5 4/5/5
f 6/11/6 5/10/6 1/1/6 2/13/6
usemtl Material.001
f 9/15/1 13/16/1 15/17/1 11/18/1
f 12/19/7 11/18/7 15/20/7 16/21/7
f 16/22/8 15/23/8 13/24/8 14/25/8
f 14/26/4 10/27/4 12/19/4 16/28/4
f 10/27/9 9/15/9 11/18/9 12/19/9
f 14/25/10 13/24/10 9/15/10 10/27/10
usemtl Material.002
f 17/29/1 21/30/1 23/31/1 19/32/1
f 20/33/11 19/32/11 23/34/11 24/35/11
f 24/36/12 23/37/12 21/38/12 22/39/12
f 22/40/4 18/41/4 20/33/4 24/42/4
f 18/41/13 17/29/13 19/32/13 20/33/13
f 22/39/14 21/38/14 17/29/14 18/41/14
